<?xml version="1.0" standalone="no"?>
<!DOCTYPE svg PUBLIC "-//W3C//DTD SVG 20010904//EN"
 "http://www.w3.org/TR/2001/REC-SVG-20010904/DTD/svg10.dtd">
<svg version="1.0" xmlns="http://www.w3.org/2000/svg"
 width="512.000000pt" height="512.000000pt" viewBox="0 0 512.000000 512.000000"
 preserveAspectRatio="xMidYMid meet">

<g transform="translate(0.000000,512.000000) scale(0.100000,-0.100000)"
fill="#000000" stroke="none">
<path d="M2253 3323 c-57 -2 -103 -6 -103 -10 0 -3 70 -140 156 -305 86 -165
154 -302 151 -304 -8 -9 -51 -12 -279 -19 l-218 -8 -94 87 c-81 74 -99 86
-129 86 -20 0 -38 -4 -41 -9 -4 -5 19 -80 49 -167 l55 -158 -40 -158 c-22 -87
-40 -163 -40 -168 0 -6 18 -10 41 -8 37 2 48 10 123 90 l83 87 144 6 c311 12
349 13 355 3 4 -6 -4 -33 -16 -62 -13 -28 -33 -73 -46 -101 -29 -64 -126 -287
-170 -388 l-34 -78 110 2 c101 1 112 3 122 22 6 11 36 53 67 93 70 89 172 226
231 309 25 35 72 99 104 142 33 43 60 79 61 81 2 2 56 5 121 8 136 5 205 23
282 71 68 43 91 89 66 132 -18 31 -76 68 -149 97 -41 16 -73 19 -188 18 l-138
-2 -262 308 c-144 170 -264 308 -267 307 -3 -1 -51 -3 -107 -4z"/>
<path d="M4768 2818 c-49 -26 -62 -40 -84 -84 -73 -149 26 -313 187 -314 64 0
108 21 157 73 52 58 69 113 53 181 -24 106 -95 167 -200 172 -47 2 -65 -2
-113 -28z"/>
<path d="M4228 2730 c-45 -24 -74 -90 -64 -145 13 -70 95 -128 167 -117 38 6
105 67 114 105 13 49 -4 99 -46 139 -35 33 -46 38 -87 38 -26 -1 -63 -9 -84
-20z"/>
<path d="M3695 2721 c-33 -14 -74 -61 -84 -97 -14 -50 3 -104 43 -141 46 -43
93 -51 153 -26 54 22 83 67 83 129 0 96 -108 170 -195 135z"/>
<path d="M230 2692 c-14 -2 -50 -15 -80 -30 -45 -22 -59 -36 -79 -75 -38 -75
-39 -140 -4 -207 99 -187 378 -136 400 73 14 140 -101 256 -237 239z"/>
<path d="M1381 2649 c-18 -4 -50 -23 -70 -43 -33 -33 -36 -41 -35 -90 0 -61
19 -97 67 -126 98 -60 227 24 213 138 -12 90 -84 140 -175 121z"/>
<path d="M800 2618 c-164 -83 -42 -331 124 -253 107 51 109 207 4 255 -55 25
-74 25 -128 -2z"/>
</g>
</svg>
