<?xml version="1.0" standalone="no"?>
<!DOCTYPE svg PUBLIC "-//W3C//DTD SVG 20010904//EN"
 "http://www.w3.org/TR/2001/REC-SVG-20010904/DTD/svg10.dtd">
<svg version="1.0" xmlns="http://www.w3.org/2000/svg"
 width="512.000000pt" height="512.000000pt" viewBox="0 0 512.000000 512.000000"
 preserveAspectRatio="xMidYMid meet">

<g transform="translate(0.000000,512.000000) scale(0.100000,-0.100000)"
fill="#000000" stroke="none">
<path d="M2315 4414 c-610 -103 -1094 -576 -1227 -1198 -31 -146 -31 -409 0
-551 90 -417 356 -879 791 -1374 155 -177 539 -554 590 -581 53 -26 129 -26
181 0 51 26 437 405 590 580 437 497 699 953 792 1377 29 130 31 391 5 533
-37 199 -116 392 -231 565 -233 348 -600 585 -1002 649 -123 19 -375 20 -489
0z m418 -369 c457 -69 834 -427 926 -882 25 -121 28 -306 7 -415 -40 -208
-144 -441 -308 -696 l-60 -92 -52 31 c-369 222 -822 251 -1216 80 -47 -21
-112 -54 -145 -74 l-60 -37 -73 113 c-150 230 -272 514 -302 700 -20 119 -8
329 25 447 101 368 385 668 740 783 70 23 131 36 225 51 61 9 203 5 293 -9z"/>
<path d="M2411 3664 c-144 -38 -290 -160 -354 -294 -165 -347 46 -747 423
-802 384 -56 708 291 629 674 -41 196 -209 372 -406 423 -72 19 -221 18 -292
-1z"/>
</g>
</svg>
